<svg version="1.1" id="Camada_1" xmlns="http://www.w3.org/2000/svg" x="0" y="0" viewBox="0 0 1000 1340" style="enable-background:new 0 0 1000 1340" xml:space="preserve"><style>.st0{fill:#090}</style><g id="Layer_1"><path class="st0" d="M1000 919.8c-32.3-34.7-67.9-64.1-105.4-87.8 37-23.7 72.6-53.7 104.9-88.3-42.3-21.4-85.9-37-129.2-46.5 26.6-35.1 49.9-75.5 68.9-118.7-47-5.7-93.1-5.2-137.2.5 13.3-42.3 21.4-87.8 23.7-135.3-46.1 10.9-89.7 26.6-128.7 47-2.4-44.2-10-89.7-23.7-135.3-39.4 26.1-75 56-104.9 88.3C551.3 402.9 528 363 499.5 325c-28.5 38-51.3 78.3-68.4 119.2-29.9-32.8-65.5-62.7-104.9-88.3-13.8 45.1-21.4 90.7-23.7 134.9-39.4-20.4-82.6-36.1-128.7-47 2.8 47.5 10.9 93.1 24.2 135.3-44.2-5.7-90.2-5.7-137.7 0 18.5 43.7 41.8 83.6 68.9 118.7-43.2 10-86.9 25.6-129.2 47 32.3 34.7 67.9 64.1 105.4 87.8-37 23.7-72.6 53.7-104.9 88.3 42.3 21.4 85.9 37 129.2 46.5-26.6 35.1-49.9 75.5-68.9 118.7 47 5.7 93.1 5.2 136.8 0-13.3 42.3-21.4 87.8-23.7 134.9 46.1-10.9 89.7-26.6 128.7-47 1.9 44.2 10 89.7 23.7 135.3 39.4-26.1 75-55.6 104.9-88.3 17.1 40.8 40.4 81.2 68.9 119.2 28.5-38 51.3-78.3 68.4-119.2 29.9 32.8 65.5 62.7 105.4 88.3 13.8-45.1 21.4-90.7 23.7-135.3 39.4 20.4 83.1 36.1 129.2 47-2.8-47.5-10.9-92.6-24.2-134.9 43.7 5.7 90.2 5.7 137.2 0-18.5-43.7-41.8-83.6-68.9-118.7 43.2-10.6 86.8-26.3 129.1-47.6z"/><path d="M870.8 966.8c-24.7-32.3-52.7-60.8-83.1-84 36.6-11.4 72.2-29 106.8-50.8-34.7-21.8-70.3-38.9-106.8-50.3 30.4-23.3 57.9-51.8 83.1-84.5-39.9-9-79.3-12.8-117.8-10.9 20.4-32.3 37-68.4 48.9-107.8-40.4 5.2-78.8 15.2-114.4 29.9 8.1-37.5 11.4-76.9 9-118.2-36.1 19-68.9 41.3-96.9 67.4-5.2-38-15.7-76.4-31.8-114-28 30.4-50.8 62.7-68.4 96.9-17.6-33.7-40.8-66.5-68.9-96.4-15.7 37.5-26.1 76-30.9 113.5-28-25.6-61.3-48.4-97.8-67-1.9 40.8 1.4 80.7 9.5 118.2-35.1-14.7-73.6-24.2-114.4-29.4 12.3 38.9 29 75 49.4 107.3-38-1.4-77.9 2.4-118.2 11.4 24.7 32.3 52.7 60.8 83.1 84-36.6 11.4-72.2 29-106.8 50.8 34.7 21.8 70.3 38.9 106.8 50.3-30.4 23.3-57.9 51.8-83.1 84.5 39.9 9 79.3 12.8 117.3 10.9-20.4 32.3-37 68.4-48.9 107.8 40.4-5.2 79.3-15.2 114.4-29.9-8.1 37-11.4 76.9-9.5 117.8 36.6-19 69.3-41.3 97.3-67 5.2 38 15.7 76.4 31.3 114 27.5-30.4 50.8-62.7 68.4-96.4 17.6 33.7 40.8 66.5 68.9 96.4 15.7-37.5 26.1-76 31.3-114 28 25.6 61.3 48.4 97.8 67 1.9-40.8-1.4-80.7-9.5-117.8 35.1 14.7 74.1 24.2 114.4 29.4-12.3-38.9-29-75-49.4-107.3 39.2 1 79.1-2.8 118.9-11.8z" style="fill:#9c0"/><path id="_x0032_" d="M697.1 832.4c31.8-11.9 62.7-29 91.2-50.8-34.2-10.9-68.9-16.1-102.6-16.6 26.1-21.8 48.9-48.4 67.9-78.8-35.6 1.4-70.3 8.1-102.1 19.9 17.1-29.4 29.4-62.2 37-97.3-33.2 13.8-63.2 31.8-89.3 53.7 5.7-33.7 6.2-68.9 1.4-104.5-26.6 24.2-48.9 51.8-66 81.2-6.2-33.7-17.6-67-34.2-98.8-16.1 31.8-28 64.6-33.7 97.8-17.1-29.4-39.4-56.5-66-80.7-4.7 35.6-4.3 70.8 1.4 104.5-26.1-21.8-56.5-39.9-89.7-53.2 7.6 35.1 19.9 67.9 37 97.3-31.8-11.4-66.5-18-102.1-19.5 19.5 30.4 42.3 56.5 67.9 78.8-34.2 0-68.9 5.7-103 16.6 28.5 21.8 58.9 38.9 91.2 50.3-31.8 11.9-62.7 29-91.2 50.8 34.2 10.4 68.9 16.1 102.6 16.6-26.1 21.8-48.9 48.4-68.4 78.8 35.6-1.4 70.3-8.1 102.1-19.5-17.1 29.4-29.4 62.7-37 97.3 33.2-13.8 63.2-31.8 89.3-53.7-5.7 33.7-6.2 68.4-1.4 104 26.6-24.2 48.9-51.3 66-80.7 6.2 33.7 17.6 66.5 34.2 98.3 16.6-31.8 28-64.6 34.2-98.3 17.1 29.4 39.4 56.5 66 80.7 4.7-35.6 4.3-70.8-1.4-104 26.1 21.8 56.5 39.9 89.7 53.7-7.6-35.1-19.9-67.9-37-97.3 32.3 11.4 66.5 18 102.6 19.5-19.5-30.4-42.3-56.5-68.4-78.8 34.2 0 68.9-5.7 103-16.6-29-22.2-59.4-39.3-91.2-50.7z" style="fill:#ff0"/><path id="_x0031_" d="M599.7 849.5c33.2 0 66-6.2 96.9-17.6-31.3-11.4-63.6-17.6-96.9-17.6 31.3-11.4 59.8-28.5 85-49.9-33.2 0-66 5.2-97.3 16.6 25.6-21.4 46.5-47 63.2-76-31.3 11.4-59.8 27.5-85.5 48.9 16.6-29 27.5-60.3 33.2-92.6-25.6 21.4-47 46.5-64.1 75.5 5.7-32.8 5.2-66-.5-98.8-16.6 28.5-28 59.4-33.7 91.6-5.7-32.8-17.6-64.1-34.2-92.6-5.7 32.8-6.2 66-.5 98.8-16.6-29-38.5-54.1-63.6-75.5 5.7 32.8 16.6 64.1 33.2 92.6-25.6-21.4-54.6-37.5-85.5-48.9 16.6 29 37.5 54.1 63.2 76-31.3-11.4-64.1-16.6-96.9-16.6 25.2 21.4 53.7 38 85 49.9-33.2 0-66 6.2-97.3 17.6 31.3 11.4 63.6 17.6 96.9 17.6-31.3 11.4-59.8 28.5-85.5 49.9 33.2 0 66-5.2 97.3-16.6-25.6 21.4-46.5 47-63.2 76 31.3-11.4 60.3-27.5 85.5-48.9-16.6 29-27.5 60.3-33.2 93.1 25.6-21.4 47-46.5 63.6-75-5.7 32.8-5.2 66 .5 98.3 16.6-28.5 28.5-59.8 34.2-92.1 5.7 32.8 17.6 63.6 34.2 92.6 5.7-32.8 6.2-65.5.5-98.3 16.6 29 38.5 54.1 63.6 75-5.7-32.8-16.6-63.6-33.2-92.6 25.6 21.4 54.6 37.5 85.9 48.9-16.6-29-37.5-54.1-63.2-76 31.3 11.4 64.1 16.6 97.3 16.6-25.1-21.4-53.5-38.1-84.9-49.9z" style="fill:#fff"/></g><g id="Layer_2"><path class="st0" d="M772.1 154.3c0 29-10.4 68.9-51.3 68.9-49.4 0-49.4-55.6-49.4-67 0-11.4 0-70.3 50.8-70.3 46.1-.4 49.9 50.9 49.9 68.4zM672.4 0h-33.2v212.7l-.9 31.8H670l.9-26.6c3.3 5.2 7.6 11.4 17.1 18 15.2 10.4 30.9 11.4 39.4 11.4 24.2 0 48-10.4 62.2-30.4 9-11.4 17.1-30.4 17.1-64.6 0-38.9-11.9-56.5-20.9-66.5-16.1-18.5-38.5-22.8-56-22.8-40.4 0-53.2 22.3-57.9 30.4V0h.5zM863.7 161.4c0-15.7 0-71.7 52.7-71.7 38.9 0 48.4 33.2 48.4 65.1 0 12.8-1.9 38-14.2 55.6-11.4 15.7-29 17.1-37.5 17.1-46.1-.5-49.4-44.7-49.4-66.1zm-31.3 151h32.8V225c9.5 15.7 28.5 26.6 54.1 26.6 42.3 0 80.7-29 80.7-95 0-65.5-36.1-91.6-74.1-91.6-14.2 0-43.7 4.3-60.3 32.3l-.5-29.4h-33.2c.5 17.1.9 21.4.9 29l-.4 215.5z"/></g></svg>